<?xml version="1.0" standalone="yes"?>
<svg xmlns="http://www.w3.org/2000/svg" width="1251" height="823">
<path style="fill:#4e7a8b; stroke:none;" d="M0 0L0 823L1251 823L1251 0L0 0z"/>
<path style="fill:#ffffff; stroke:none;" d="M383 248C392.837 228.511 413.205 203.496 411 181C374.701 190.616 359.193 236.737 350.477 268.967C345.873 285.992 339.775 302.465 336.764 320C333.484 339.097 333.549 358.738 331.624 378C326.853 425.757 328.332 478.365 351.308 522C386.851 589.504 444.883 643.118 514 673.944C535.047 683.331 556.048 692.456 579 696.188C589.89 697.959 600.993 696.333 611.944 697.145C638.819 699.138 666.255 699.504 693 694.336C743.78 684.521 787.591 655.341 827 623.376C835.914 616.146 846.389 611.302 854.999 603.667C874.426 586.442 890.511 562.176 901.992 539C918.288 506.108 922.193 472.919 924.136 437C925.735 407.456 926.724 379.25 921.259 350C917.551 330.149 914.827 310.176 908.31 291C891.542 241.663 858.953 194.715 818.415 161.939C796.198 143.976 775.363 127.448 747 120.019C739.2 117.976 718.512 113.353 719 126C710.299 122.334 698.647 116.586 689 117.184C683.211 117.543 679.103 121.893 673 121.392C648.294 119.363 624.909 116.877 600 119.286C582.954 120.934 566.685 126.164 550 129.389C530.446 133.169 508.673 134.21 491 144.491C470.592 156.363 455.318 175.441 438.982 192C420.354 210.884 400.389 227.892 383 248z"/>
<path style="fill:#4e7a8b; stroke:none;" d="M721 128L722 134L727 133L727 132L721 128M621 231L621 257L619 257C617.497 243.477 609.293 233.627 595 236C597.012 241.079 601.859 239.201 605.937 241.845C610.777 244.982 613.091 250.556 614 256L613 256C606.471 246.877 591.576 238.172 584 251C588.635 251.099 593.439 248.967 598 250.02C613.919 253.695 616.15 269.953 616 283L625 283L625 271L630 271L630 283L639 283C638.769 269.917 640.544 254.846 656.001 250.249C660.931 248.783 665.925 251.21 671 250L671 249C658.312 240.499 649.215 246.991 640 257C641.424 251.297 643.832 245.15 649.031 241.845C653.183 239.204 657.715 240.976 660 236C645.225 233.788 638.965 243.051 635 256L634 256L634 231L621 231M616 288L616 300L625 300L625 288L616 288M630 288L630 300L639 300L639 288L630 288M610 290L608 300C612.175 299.105 611.802 293.127 610 290M539 291L539 292L545 292L539 291M708 291L708 292L715 292L708 291M555 294C579.283 325.517 568.322 366.743 573.849 404C576.172 419.659 579.673 438.833 592.608 449.489C601.01 456.411 614.599 462.905 625 466L625 470C636.698 466 656.993 454.878 665.333 445.724C673.799 436.432 676.522 422.917 679.021 411C687.154 372.218 673.821 326.767 699 294C685.16 295.581 675.588 306.437 669.051 318C654.684 343.413 659 372.771 659 401C659 407.867 660.225 416.148 658.32 422.803C654.519 436.073 638.647 442.735 626 442.393C599.229 441.669 596 420.753 596 399C596 370.8 599.968 342.163 584.863 317.001C578.133 305.789 568.499 295.806 555 294M607 305L605 317L611 317L611 305L607 305M616 305L616 317L625 317L625 305L616 305M630 305L630 317L639 317L639 305L630 305M644 305L644 317L650 317C649.555 311.781 649.277 307.186 644 305M603 322L602 333L610 333L610 322L603 322M616 322L616 333L625 333L625 322L616 322M630 322L630 333L639 333L639 322L630 322M644 322L644 333L653 333L652 322L644 322M602 339L602 350L610 350L610 339L602 339M616 339L616 350L625 350L625 339L616 339M630 339L630 350L639 350L639 339L630 339M644 339L644 350L653 350L653 339L644 339M601 355L601 367L611 367L611 355L601 355M616 355L616 367L625 367L625 355L616 355M630 355L630 367L639 367L639 355L630 355M644 355L644 367L653 367L653 355L644 355M602 372L602 383L610 383L610 372L602 372M616 372L616 384L625 384L625 372L616 372M630 372L630 384L639 384L639 372L630 372M645 372L645 383L653 383L653 372L645 372M601 389L601 400L610 400L610 389L601 389M616 389L616 400L625 400L625 389L616 389M630 389L630 400L639 400L639 389L630 389M644 389L644 400L653 400L653 389L644 389M615 405L615 417L625 417L625 405L615 405M630 405L630 417L639 417L639 405L630 405M644 405L644 417L654 417L654 405L644 405M601 417L610 417L610 406C602.328 406.421 601.115 409.78 601 417M603 422L610 433L610 422L603 422M616 422L616 438L625 438L625 422L616 422M630 422L630 438C640.022 437.311 638.998 430.342 639 422L630 422M644 422L644 434C648.399 430.729 650.743 427.346 652 422L644 422M416 552L414.97 528.018L412.272 520.993L409.99 530.003L406 561L409 561L409 579L416 579C416 571.009 414.397 562.755 422 558L423 585L430 585L430 554C435.949 553.286 439.973 552.457 441 546L430 547L429 515C414.333 518.812 430.937 545.311 416 552M587 515L587 584L594 584L594 559L599 557C602.943 564.814 606.752 573.978 612.561 580.602C615.238 583.655 620.927 584.465 620.618 578.836C620.056 568.565 607.658 560.522 606.325 550C605.193 541.061 616.639 534.966 615.577 526.473C614.951 521.477 609.373 524.048 607.382 526.389C602.256 532.413 598.862 540.705 596 548C592.66 538.771 598.982 517.204 587 515M745 515C745 525.37 747.973 546.024 738 552L736 519C726.87 524.36 731 545.654 731 555L727 555C727.197 558.569 727.462 560.757 731 562C731 568.531 729.234 576.982 737 579L737.008 570.976C737.033 568.4 739.915 555.249 743.199 563.439C746.258 571.067 739.778 583.212 751 585C751 573.143 746.379 554.685 762 553L762 546L751 546L751 515L745 515M813 584L821 584C821 579.818 818.616 562.031 823.684 560.541C826.352 559.757 828.495 563.27 829.623 565.093C833.621 571.55 837.285 578.368 841 585C856.832 580.092 832.017 558.242 832.843 548C833.575 538.937 841.946 532.313 843 523C831.03 522.138 826.429 539.134 822 548C820.465 540.433 821.121 532.687 820.983 525.008C820.936 522.343 821.222 517.785 818.305 516.388C811.778 513.26 813 528.22 813 531L813 584M627 518L627 564C627.001 570.68 625.67 578.209 633 581C633.531 577.66 633.851 574.377 633.984 570.997C634.059 569.08 634.023 567.076 634.546 565.212C639.052 549.124 651.816 571.659 654.099 575.863C655.114 577.732 656.324 579.626 658.452 580.322C667.237 583.191 681.654 580.039 691 580L691 574L681 574L681 526C686.085 525.519 688.182 524.153 689 519C681.423 519 666.418 515.694 664 525C680.617 526.126 674 560.536 674 573L663 576C660.089 569.471 654.921 562.266 654.468 555C653.788 544.089 660.285 529.432 649.625 521.072C643.678 516.408 634.073 518 627 518M697 558C697.006 563.867 696.122 571.514 700.086 576.383C705.005 582.426 716.127 582.014 720.568 575.576C723.858 570.808 723.089 562.341 721.129 557.155C718.51 550.227 710.54 547.782 706.173 542.255C703.176 538.462 702.285 531.446 706.8 528.252C713.856 523.261 716.036 541.409 722 543C721.999 536.126 723.098 527.15 717.984 521.682C704.416 507.173 694.044 532.613 698.072 543.976C700.443 550.665 707.077 552.635 711.652 557.36C714.651 560.458 717.808 567.06 713.825 570.744C706.762 577.275 703.362 559.014 697 558M453 555C444.738 556.569 443.999 561.506 453 562L453 580C462.297 578.518 460 568.366 460 561L474 559L474 580L480 580L480 558C485.426 557.703 488.105 556.626 489 551L481 551C480.997 542.97 481.582 533.092 476.884 526.105C471.766 518.49 460.924 517.062 455.546 525.227C450.519 532.857 453 546.251 453 555M544 526C544 538.379 550.595 573.101 534 574L534 581L561 580L561 574L551 574L551 526L559 526L559 519C552.567 519 544.6 517.74 538.383 519.529C530.487 521.802 541.277 525.632 544 526M774 556L766 556L766 562L774 562L774.008 569.046C774.023 570.649 773.997 572.28 774.211 573.873C774.701 577.523 778.155 580.837 780.651 576.345C783.053 572.023 780.606 565.983 784.174 562.18C786.85 559.328 791.384 559.241 795 559L795 580L802 580L802 558L810 558L810 551L802 551C801.999 542.81 802.669 532.711 797.868 525.567C792.565 517.675 781.518 518.046 776.62 526.114C771.734 534.161 774 546.957 774 556M496 580L502 580L502 539L503 539L509 559C519.344 558.048 520.347 549.533 523 541L524 541L524 580L530 580L530 520C517.015 520.702 516.07 537.433 514 548C510.685 541.13 508.371 533.897 504.892 527.068C503.847 525.017 502.138 520.986 499.203 521.363C494.648 521.949 496.001 532.003 496 535L496 580z"/>
<path style="fill:#ffffff; stroke:none;" d="M634 525L634 553C653.559 552.691 653.415 525.608 634 525M473 552C473 548.67 473.086 545.322 472.924 541.994C472.826 540 472.647 537.997 472.082 536.073C466.411 516.744 452.816 547.915 462.815 552.52C465.716 553.856 470.01 552.452 473 552M782 553C785.449 552.86 790.117 553.059 792.825 550.509C801.141 542.68 785.995 518.881 782.59 537.017C782.219 538.989 782.101 540.992 782.042 542.994C781.943 546.326 782 549.667 782 553z"/>
</svg>
